# xmcd
#
# Track frame offsets:
#	150
#	18804
#	35497
#	63502
#	77726
#	98208
#	121519
#	153355
#	174578
#	193595
#	213244
#	226030
#
# Disc length: 3291 seconds
#
# Revision: 1
# Processed by: cddbd v1.4b41PL2 Copyright (c) Steve Scherf et al.
# Submitted via: audiograbber 1.80
#
DISCID=890cd90c
DTITLE=blues traveler - bridge
DYEAR=1900
DGENRE=
TTITLE0=back in the day
TTITLE1=girl inside my head
TTITLE2=rage
TTITLE3=just for me
TTITLE4=you reach me
TTITLE5=all hands
TTITLE6=pretty angry
TTITLE7=the way
TTITLE8=you lost me there
TTITLE9=sadly a fiction
TTITLE10=you're burning me
TTITLE11=decision of the skies
EXTD=
EXTT0=
EXTT1=
EXTT2=
EXTT3=
EXTT4=
EXTT5=
EXTT6=
EXTT7=
EXTT8=
EXTT9=
EXTT10=
EXTT11=
PLAYORDER=
